<svg width="67" height="67" viewBox="0 0 67 67" fill="none" xmlns="http://www.w3.org/2000/svg">
<g clip-path="url(#clip0_51_30)">
<path d="M33.5 55.8334H5.58337V50.25H21.6355C19.5975 42.4054 13.428 36.2638 5.58337 34.2259C7.37004 33.7792 9.24046 33.5 11.1667 33.5C23.5059 33.5 33.5 43.4942 33.5 55.8334ZM61.4167 34.2259C59.63 33.7792 57.7596 33.5 55.8334 33.5C47.6538 33.5 40.535 37.9109 36.6267 44.4713C37.4363 46.3138 38.1063 48.24 38.4971 50.25C38.86 52.0646 39.0555 53.935 39.0555 55.8334H44.6388H61.3888V50.25H45.3367C47.4025 42.4054 53.5721 36.2638 61.4167 34.2259ZM43.6617 30.7642C45.8392 24.9296 49.8871 20.0442 55.0796 16.8059C43.1034 17.1967 33.5 26.9954 33.5 39.0834C33.5 39.1113 33.5 39.1392 33.5 39.1392C36.1521 35.5938 39.6417 32.7184 43.6617 30.7642ZM31.8809 24.7063C29.5359 18.5925 24.79 13.6513 18.7042 11.1667C22.7242 16.3592 25.125 22.8359 25.125 29.8988C25.125 30.485 25.0413 31.0434 25.0134 31.6017C26.2138 32.2717 27.3305 33.0534 28.4192 33.8909C29.0055 30.5967 30.2338 27.4979 31.8809 24.7063Z" fill="#6A994E"/>
</g>
<defs>
<clipPath id="clip0_51_30">
<rect width="67" height="67" fill="white"/>
</clipPath>
</defs>
</svg>
