<svg width="58" height="58" viewBox="0 0 58 58" fill="none" xmlns="http://www.w3.org/2000/svg">
<path d="M0 0H50C54.4183 0 58 3.58172 58 8V58H8C3.58172 58 0 54.4183 0 50V0Z" fill="#A7C957"/>
<g filter="url(#filter0_d_58_11)">
<path d="M12.3199 43V41.4C13.2266 41.3733 13.9466 41.2933 14.4799 41.16C15.0399 41.0267 15.4666 40.8 15.7599 40.48C16.0799 40.16 16.2933 39.7067 16.3999 39.12C16.5066 38.5333 16.5599 37.7733 16.5599 36.84V18.36C16.5599 17.4267 16.5199 16.68 16.4399 16.12C16.3599 15.5333 16.1866 15.08 15.9199 14.76C15.6799 14.4133 15.3333 14.1867 14.8799 14.08C14.4533 13.9467 13.8799 13.8533 13.1599 13.8V12.2H25.9999C30.0266 12.2 33.1199 12.8533 35.2799 14.16C37.4666 15.44 38.5599 17.28 38.5599 19.68C38.5599 22.8533 36.2799 25.0933 31.7199 26.4V26.56C33.1866 26.56 34.5066 26.7733 35.6799 27.2C36.8799 27.6 37.8933 28.1733 38.7199 28.92C39.5466 29.6667 40.1866 30.5467 40.6399 31.56C41.0933 32.5733 41.3199 33.68 41.3199 34.88C41.3199 36.24 40.9866 37.4267 40.3199 38.44C39.6799 39.4533 38.7466 40.3067 37.5199 41C35.1466 42.3333 31.8799 43 27.7199 43H12.3199ZM27.9999 40.56C32.2933 40.56 34.4399 38.6267 34.4399 34.76C34.4399 32.3867 33.6666 30.6533 32.1199 29.56C31.3199 29 30.2799 28.6 28.9999 28.36C27.7466 28.12 26.1999 28 24.3599 28H22.4399V36C22.4399 37.6533 22.8666 38.8267 23.7199 39.52C24.5733 40.2133 25.9999 40.56 27.9999 40.56ZM24.7999 25.6C25.9999 25.6 27.0399 25.4933 27.9199 25.28C28.7999 25.04 29.5466 24.7067 30.1599 24.28C31.4399 23.4 32.0799 22.0267 32.0799 20.16C32.0799 18.2133 31.5999 16.8133 30.6399 15.96C29.6799 15.08 28.1333 14.64 25.9999 14.64H23.1599C22.6799 14.64 22.4399 14.8667 22.4399 15.32V25.6H24.7999Z" fill="#F2E8CF"/>
</g>
<g filter="url(#filter1_d_58_11)">
<path d="M47.9932 26.345C47.2947 26.0022 43.7544 26.3937 41.2007 28.8425C37.1788 32.8594 37.2753 38.1494 37.2753 38.1494C37.2753 38.1494 37.1428 38.6941 36.576 37.9044C35.336 36.3247 35.9857 32.6891 36.0582 32.1822C36.1607 31.4694 35.706 31.4475 35.5163 31.6837C31.0366 37.9041 35.0825 42.9981 37.7322 44.615C40.8335 46.5072 46.9525 46.5066 49.3903 41.1375C52.425 34.4509 48.8678 26.7741 47.9932 26.345Z" fill="#82B23F"/>
</g>
<path d="M47.9234 32.2447C48.2343 30.1594 48.2362 28.1506 47.9806 26.3406C47.2587 26.0069 43.7415 26.4056 41.2006 28.8425C37.1787 32.8594 37.2753 38.1494 37.2753 38.1494C37.2753 38.1494 37.1428 38.6941 36.5759 37.9044C35.3359 36.3247 35.9856 32.6891 36.0581 32.1822C36.1606 31.4694 35.7059 31.4475 35.5162 31.6837C32.8087 35.4431 33.2171 38.7894 34.5474 41.2072C35.879 42.6369 37.3943 43.5766 38.7978 43.7859C42.7978 44.3828 46.8828 39.2156 47.9234 32.2447Z" fill="#B3E856"/>
<path d="M47.9234 32.2447C48.2344 30.1594 48.2362 28.1506 47.9806 26.3406C47.2587 26.0069 44.4572 27.1662 41.9159 29.6037C37.894 33.6203 37.2753 38.1494 37.2753 38.1494C37.2753 38.1494 37.1428 38.6941 36.5759 37.9044C35.3359 36.3247 35.7622 33.5956 35.835 33.0891C35.9378 32.3759 35.4828 32.3544 35.2931 32.5906C32.5859 36.35 33.2175 38.7897 34.5481 41.2072C35.8797 42.6369 37.395 43.5766 38.7984 43.7859C42.7978 44.3828 46.8828 39.2156 47.9234 32.2447Z" fill="#98D13F"/>
<defs>
<filter id="filter0_d_58_11" x="8.71995" y="10.6" width="36.2" height="38" filterUnits="userSpaceOnUse" color-interpolation-filters="sRGB">
<feFlood flood-opacity="0" result="BackgroundImageFix"/>
<feColorMatrix in="SourceAlpha" type="matrix" values="0 0 0 0 0 0 0 0 0 0 0 0 0 0 0 0 0 0 127 0" result="hardAlpha"/>
<feOffset dy="2"/>
<feGaussianBlur stdDeviation="1.8"/>
<feComposite in2="hardAlpha" operator="out"/>
<feColorMatrix type="matrix" values="0 0 0 0 0.219608 0 0 0 0 0.4 0 0 0 0 0.254902 0 0 0 1 0"/>
<feBlend mode="normal" in2="BackgroundImageFix" result="effect1_dropShadow_58_11"/>
<feBlend mode="normal" in="SourceGraphic" in2="effect1_dropShadow_58_11" result="shape"/>
</filter>
<filter id="filter1_d_58_11" x="29.9095" y="24.638" width="24.2841" height="26.7239" filterUnits="userSpaceOnUse" color-interpolation-filters="sRGB">
<feFlood flood-opacity="0" result="BackgroundImageFix"/>
<feColorMatrix in="SourceAlpha" type="matrix" values="0 0 0 0 0 0 0 0 0 0 0 0 0 0 0 0 0 0 127 0" result="hardAlpha"/>
<feOffset dy="2"/>
<feGaussianBlur stdDeviation="1.8"/>
<feComposite in2="hardAlpha" operator="out"/>
<feColorMatrix type="matrix" values="0 0 0 0 0.219608 0 0 0 0 0.4 0 0 0 0 0.254902 0 0 0 1 0"/>
<feBlend mode="normal" in2="BackgroundImageFix" result="effect1_dropShadow_58_11"/>
<feBlend mode="normal" in="SourceGraphic" in2="effect1_dropShadow_58_11" result="shape"/>
</filter>
</defs>
</svg>
